<svg xmlns="http://www.w3.org/2000/svg" width="32" height="32" viewBox="0 0 32 32" fill="#e0211b"><path d="M22 7a2 2 0 0 0-2 2v.5h-.863A3.088 3.088 0 0 0 16.5 8H6.75a3.249 3.249 0 0 0-3.063 4.333 3.217 3.217 0 0 0-.687 2 3.27 3.27 0 0 0 .253 1.254 3.25 3.25 0 0 0-.566 3.163 3.215 3.215 0 0 0-.687 2A3.254 3.254 0 0 0 5.25 24h4.043a13.808 13.808 0 0 0-.163 2c0 2.093 1.31 6 4.47 6a3.1 3.1 0 0 0 .63-.067c2.65-.556 2.333-2.793 2.14-4.133a6.35 6.35 0 0 1-.1-1.443 24.387 24.387 0 0 1 2.76-4.857H20V23a2 2 0 0 0 2 2h8V7zm-2.97 12.5h-1.064l-.594.882c-1.087 1.613-2.934 4.5-3.089 5.722l-.011.084v.084a8.393 8.393 0 0 0 .128 1.852c.24 1.681.064 1.717-.579 1.852A1.03 1.03 0 0 1 13.6 30c-1.6 0-2.47-2.642-2.47-3.983a11.771 11.771 0 0 1 .14-1.709L11.629 22H5.252A1.256 1.256 0 0 1 4 20.742a1.223 1.223 0 0 1 .26-.757l.679-.865-.367-1.037a1.257 1.257 0 0 1 .218-1.216l.778-.934-.47-1.12a1.24 1.24 0 0 1-.1-.488 1.223 1.223 0 0 1 .26-.757l.679-.864-.367-1.037a1.256 1.256 0 0 1-.07-.417A1.25 1.25 0 0 1 6.75 10h9.75a1.092 1.092 0 0 1 .926.528L18 11.5h2v8zM28 23h-6V9h6z"/><circle cx="24" cy="21" r="1"/></svg>
