<svg xmlns="http://www.w3.org/2000/svg" width="32" height="32" viewBox="0 0 32 32" fill="#1bb826"><circle cx="8" cy="21" r="1"/><path d="M29.313 13.25a3.215 3.215 0 0 0 .687-2A3.254 3.254 0 0 0 26.75 8h-4.043a13.808 13.808 0 0 0 .163-2c0-2.093-1.31-6-4.47-6a3.1 3.1 0 0 0-.63.067C15.12.623 15.437 2.86 15.63 4.2a6.35 6.35 0 0 1 .1 1.443 24.387 24.387 0 0 1-2.76 4.857H12V9a2 2 0 0 0-2-2H2v18h8a2 2 0 0 0 2-2v-.5h.863A3.088 3.088 0 0 0 15.5 24h9.75a3.249 3.249 0 0 0 3.063-4.333 3.217 3.217 0 0 0 .687-2 3.27 3.27 0 0 0-.253-1.254 3.25 3.25 0 0 0 .566-3.163zM10 23H4V9h6v14zm17.74-10.985l-.679.865.367 1.037a1.257 1.257 0 0 1-.218 1.216l-.778.934.47 1.12a1.24 1.24 0 0 1 .1.488 1.223 1.223 0 0 1-.26.757l-.679.864.367 1.037a1.256 1.256 0 0 1 .071.417A1.25 1.25 0 0 1 25.25 22h-9.743a1.092 1.092 0 0 1-.928-.528L14 20.5h-2v-8h2.034l.594-.882c1.087-1.613 2.934-4.5 3.089-5.722l.011-.084v-.084a8.393 8.393 0 0 0-.128-1.852c-.24-1.681-.064-1.717.579-1.852A1.016 1.016 0 0 1 18.4 2c1.6 0 2.47 2.643 2.47 3.983a11.771 11.771 0 0 1-.14 1.709L20.371 10h6.377A1.256 1.256 0 0 1 28 11.258a1.223 1.223 0 0 1-.26.757z"/></svg>
